<svg width="215" height="217" viewBox="0 0 215 217" fill="none" xmlns="http://www.w3.org/2000/svg">
<path d="M130.988 0.074151C137.83 -0.0926873 154.513 0.0741481 164.5 0.074151C174.419 0.074151 181.074 5.68514 181.995 11.9384C182.457 15.0712 181.459 18.3071 178.773 20.9687C176.096 23.6213 171.764 25.6844 165.57 26.5693L165.535 26.5742H137.026C120.801 28.0595 103.485 42.8374 100.5 67.6034V83.5771C121.168 83.744 162.233 84.0107 177.706 84.0107H177.718L177.73 84.0117C199.781 85.0873 212.976 100.788 214.498 117.027L214.5 117.051V138.09C213.689 163.63 191.699 179.048 168.084 183.067L168.042 183.074H135.905L135.816 183.039C127.403 179.725 124.346 173.913 125.004 168.452C125.655 163.047 129.939 158.138 135.874 156.59L135.936 156.574H165.979C174.731 156.204 180.815 152.975 184.746 148.396C188.686 143.807 190.502 137.818 190.625 131.876C190.748 125.931 189.175 120.08 186.393 115.792C183.611 111.505 179.666 108.835 175.025 109.073L175.013 109.074H99.5V165.574C99.4999 185.759 90.0268 198.398 79.7354 206.038C69.6169 213.549 58.6967 216.236 55.1865 216.558V216.559C55.1107 216.596 55.0313 216.617 54.9746 216.63C54.8526 216.657 54.6938 216.677 54.5186 216.693C54.1616 216.726 53.6557 216.75 53.0439 216.766C51.8165 216.798 50.1223 216.801 48.2461 216.786C44.4916 216.757 39.9881 216.658 36.9863 216.574L36.9785 216.573H36.9707C22.9598 215.761 13.9494 207.877 8.33789 197.779C2.73713 187.7 0.503122 175.391 0.000976562 165.6L0 165.587V143.574C0 135.272 3.28155 121.674 11.5254 109.642C19.7811 97.592 33.0286 87.0935 52.9492 85.0761L52.9746 85.0742H73V72.0742C73 64.5011 75.6414 47.1674 84.1855 31.3984C92.739 15.6123 107.246 1.33723 130.974 0.0751276L130.98 0.074151H130.988ZM64 108.5C45.5 109.5 26.5 125 26.5 143V171C26.5 177.582 29.7001 191.172 42.5 192.873H51C57.9449 192.025 72.1508 185.697 73.417 167.165L73 108.5H64Z" fill="#639C92"/>
</svg>
