<svg width="821" height="217" viewBox="0 0 821 217" fill="none" xmlns="http://www.w3.org/2000/svg">
<path d="M130.988 0.074151C137.83 -0.0926873 154.513 0.0741481 164.5 0.074151C174.419 0.074151 181.074 5.68514 181.995 11.9384C182.457 15.0712 181.459 18.3071 178.773 20.9687C176.096 23.6213 171.764 25.6844 165.57 26.5693L165.535 26.5742H137.026C120.801 28.0595 103.485 42.8374 100.5 67.6034V83.5771C121.168 83.744 162.233 84.0107 177.706 84.0107H177.718L177.73 84.0117C199.781 85.0873 212.976 100.788 214.498 117.027L214.5 117.051V138.09C213.689 163.63 191.699 179.048 168.084 183.067L168.042 183.074H135.905L135.816 183.039C127.403 179.725 124.346 173.913 125.004 168.452C125.655 163.047 129.939 158.138 135.874 156.59L135.936 156.574H165.979C174.731 156.204 180.815 152.975 184.746 148.396C188.686 143.807 190.502 137.818 190.625 131.876C190.748 125.931 189.175 120.08 186.393 115.792C183.611 111.505 179.666 108.835 175.025 109.073L175.013 109.074H99.5V165.574C99.4999 185.759 90.0268 198.398 79.7354 206.038C69.6169 213.549 58.6967 216.236 55.1865 216.558V216.559C55.1107 216.596 55.0313 216.617 54.9746 216.63C54.8526 216.657 54.6938 216.677 54.5186 216.693C54.1616 216.726 53.6557 216.75 53.0439 216.766C51.8165 216.798 50.1223 216.801 48.2461 216.786C44.4916 216.757 39.9881 216.658 36.9863 216.574L36.9785 216.573H36.9707C22.9598 215.761 13.9494 207.877 8.33789 197.779C2.73713 187.7 0.503122 175.391 0.000976562 165.6L0 165.587V143.574C0 135.272 3.28155 121.674 11.5254 109.642C19.7811 97.592 33.0286 87.0935 52.9492 85.0761L52.9746 85.0742H73V72.0742C73 64.5011 75.6414 47.1674 84.1855 31.3984C92.739 15.6123 107.246 1.33723 130.974 0.0751276L130.98 0.074151H130.988ZM64 108.5C45.5 109.5 26.5 125 26.5 143V171C26.5 177.582 29.7001 191.172 42.5 192.873H51C57.9449 192.025 72.1508 185.697 73.417 167.165L73 108.5H64Z" fill="#639C92"/>
<path d="M773.167 172.984C763.809 172.984 755.6 170.888 748.538 166.697C741.477 162.506 735.965 156.737 732.004 149.388C728.1 141.982 726.148 133.486 726.148 123.898C726.148 114.196 728.158 105.67 732.176 98.3218C736.195 90.9158 741.735 85.1461 748.797 81.0126C755.858 76.879 763.982 74.8123 773.167 74.8123C782.525 74.8123 790.735 76.9077 797.796 81.0987C804.915 85.2896 810.455 91.0881 814.417 98.494C818.378 105.843 820.359 114.311 820.359 123.898C820.359 133.543 818.349 142.068 814.331 149.474C810.369 156.823 804.829 162.593 797.71 166.783C790.649 170.917 782.468 172.984 773.167 172.984ZM773.167 151.11C780.688 151.11 786.286 148.584 789.96 143.532C793.692 138.423 795.557 131.878 795.557 123.898C795.557 115.631 793.663 109.029 789.874 104.091C786.142 99.1542 780.573 96.6856 773.167 96.6856C768.058 96.6856 763.867 97.8338 760.594 100.13C757.322 102.427 754.882 105.613 753.275 109.689C751.725 113.765 750.95 118.501 750.95 123.898C750.95 132.223 752.815 138.853 756.547 143.791C760.336 148.671 765.876 151.11 773.167 151.11Z" fill="#30424B"/>
<path d="M682.075 170.4V43.8107H705.498V170.4H682.075Z" fill="#30424B"/>
<path d="M631.112 170.4V43.8107H654.535V170.4H631.112Z" fill="#30424B"/>
<path d="M567.835 172.984C558.304 172.984 549.894 170.946 542.603 166.87C535.369 162.736 529.685 157.081 525.552 149.905C521.476 142.671 519.438 134.404 519.438 125.104C519.438 114.942 521.447 106.101 525.466 98.5801C529.485 91.0594 535.025 85.2322 542.086 81.0987C549.148 76.9077 557.271 74.8123 566.457 74.8123C576.217 74.8123 584.512 77.1087 591.344 81.7015C598.176 86.2943 603.228 92.753 606.5 101.077C609.773 109.402 610.921 119.19 609.945 130.443H586.78V121.831C586.78 112.359 585.259 105.555 582.216 101.422C579.231 97.231 574.322 95.1355 567.49 95.1355C559.51 95.1355 553.626 97.5754 549.836 102.455C546.105 107.278 544.239 114.425 544.239 123.898C544.239 132.567 546.105 139.284 549.836 144.049C553.626 148.757 559.166 151.11 566.457 151.11C571.05 151.11 574.982 150.106 578.255 148.096C581.527 146.087 584.024 143.188 585.747 139.399L609.17 146.116C605.668 154.613 600.128 161.215 592.55 165.922C585.029 170.63 576.791 172.984 567.835 172.984ZM537.005 130.443V113.047H598.664V130.443H537.005Z" fill="#30424B"/>
<path d="M480.173 170.4V126.481C480.173 124.357 480.058 121.659 479.829 118.387C479.599 115.057 478.881 111.727 477.676 108.397C476.47 105.067 474.49 102.283 471.734 100.044C469.036 97.8051 465.189 96.6856 460.194 96.6856C458.185 96.6856 456.032 97.0013 453.736 97.6328C451.439 98.2643 449.286 99.4987 447.277 101.336C445.268 103.116 443.603 105.756 442.282 109.258C441.019 112.76 440.388 117.411 440.388 123.209L426.954 116.837C426.954 109.488 428.447 102.599 431.432 96.1689C434.417 89.7389 438.895 84.5433 444.866 80.582C450.894 76.6207 458.472 74.64 467.6 74.64C474.891 74.64 480.833 75.8743 485.426 78.343C490.019 80.8116 493.578 83.9405 496.105 87.7296C498.688 91.5186 500.525 95.4799 501.616 99.6135C502.707 103.69 503.367 107.421 503.597 110.808C503.826 114.196 503.941 116.664 503.941 118.214V170.4H480.173ZM416.62 170.4V77.3957H437.46V108.225H440.388V170.4H416.62Z" fill="#30424B"/>
<path d="M367.552 64.4784V43.8107H390.975V64.4784H367.552ZM367.552 170.4V77.3957H390.975V170.4H367.552Z" fill="#30424B"/>
<path d="M274.5 170.4V46.3942H350.282V69.8176H297.923V96.6856H339.948V120.109H297.923V170.4H274.5Z" fill="#30424B"/>
</svg>
